PathFileType	4	(X/Y/Z)	..\data\2014015\dynamic\2014015_C5_03.trc
DataRate	CameraRate	NumFrames	NumMarkers	Units	OrigDataRate	OrigDataStartFrame	OrigNumFrames
100.000000	100.000000	4	52	mm	100.000000	20	163
Frame#	Time	L_IAS			L_IPS			R_IPS			R_IAS			L_FTC			L_FLE			L_FME			L_FAX			L_TTC			L_FAL			L_TAM			L_FCC			L_FM1			L_FM2			L_FM5			R_FTC			R_FLE			R_FME			R_FAX			R_TTC			R_FAL			R_TAM			R_FCC			R_FM1			R_FM2			R_FM5			CV7			TV10			SXS			SJN			L_SIA			L_SRS			L_SAA			L_SAE			L_HLE			L_HME			L_UOA			L_RSP			L_UHE			L_HM2			L_HM5			R_SIA			R_SRS			R_SAA			R_SAE			R_HLE			R_HME			R_UOA			R_RSP			R_UHE			R_HM2			R_HM5			
		X1	Y1	Z1	X2	Y2	Z2	X3	Y3	Z3	X4	Y4	Z4	X5	Y5	Z5	X6	Y6	Z6	X7	Y7	Z7	X8	Y8	Z8	X9	Y9	Z9	X10	Y10	Z10	X11	Y11	Z11	X12	Y12	Z12	X13	Y13	Z13	X14	Y14	Z14	X15	Y15	Z15	X16	Y16	Z16	X17	Y17	Z17	X18	Y18	Z18	X19	Y19	Z19	X20	Y20	Z20	X21	Y21	Z21	X22	Y22	Z22	X23	Y23	Z23	X24	Y24	Z24	X25	Y25	Z25	X26	Y26	Z26	X27	Y27	Z27	X28	Y28	Z28	X29	Y29	Z29	X30	Y30	Z30	X31	Y31	Z31	X32	Y32	Z32	X33	Y33	Z33	X34	Y34	Z34	X35	Y35	Z35	X36	Y36	Z36	X37	Y37	Z37	X38	Y38	Z38	X39	Y39	Z39	X40	Y40	Z40	X41	Y41	Z41	X42	Y42	Z42	X43	Y43	Z43	X44	Y44	Z44	X45	Y45	Z45	X46	Y46	Z46	X47	Y47	Z47	X48	Y48	Z48	X49	Y49	Z49	X50	Y50	Z50	X51	Y51	Z51	X52	Y52	Z52	

21	0.2	-931.5989990234377	827.8846435546877	153.0405883789062	-1141.868041992188	863.8216552734377	224.0038604736327	-1140.779174804688	869.087341308594	332.8975830078124	-913.2279052734377	851.216979980469	393.010498046875	-1017.121948242188	751.2758789062501	83.35768127441395	-1058.589965820313	412.4403381347657	112.9741134643554	-1006.828369140625	379.5250854492188	243.5618896484374	-1105.085205078125	381.6844482421876	109.386505126953	-1037.662963867188	337.1479797363282	144.760513305664	-1336.946533203125	219.3850860595704	186.1708221435545	-1296.157104492188	193.1788635253907	259.2366333007811	-1371.475708007813	230.5871887207032	238.6162567138671	-1330.2626953125	68.04859924316408	266.6126098632811	-1319.464233398438	58.70167160034181	212.7944946289061	-1355.375732421875	87.10803985595705	161.9646911621092	-965.1123046875002	763.3402099609376	458.2849731445312	-908.9939575195315	421.4218750000001	387.7795104980469	-891.6802978515627	412.2217712402345	249.3824768066406	-902.6382446289065	367.6675720214844	387.20849609375	-855.7126464843752	372.1510620117188	322.5747375488281	-936.5657958984377	60.2124710083008	344.0792541503906	-910.896667480469	83.93294525146486	256.7774658203124	-973.8691406250002	23.59687805175782	299.4627685546874	-798.8914794921877	21.03207588195801	249.4333190917968	-778.7736816406252	36.08528137207032	304.3561706542968	-830.2984008789065	27.03262519836426	359.7962341308593	-1099.648559570313	1313.2490234375	274.3552246093749	-1155.364501953125	1116.54052734375	266.1832275390624	-902.0170898437502	1039.55029296875	271.0644531249999	-971.6834716796877	1247.023681640625	273.6063232421874	-1158.7568359375	1144.49609375	191.660919189453	-1125.456909179688	1266.119262695313	195.9423370361327	-1092.308471679688	1279.752319335938	135.959991455078	-1031.036987304688	1274.515502929688	96.54164123535146	-1049.275268554688	1002.918640136719	37.16262435913074	-1078.39111328125	983.7225341796877	120.6771697998046	-1085.255004882813	976.873718261719	71.68406677246082	-948.9075317382815	807.0389404296877	72.18943786621084	-1001.832214355469	795.958923339844	16.69740676879871	-904.5347900390627	727.9679565429689	59.19610214233388	-985.8511962890627	717.6271972656251	10.22891426086414	-1159.019653320313	1140.982543945313	362.8729858398437	-1124.3798828125	1264.432495117188	355.0577087402343	-1099.25830078125	1272.128051757813	413.3641052246094	-1022.899047851563	1269.770751953125	448.5647888183594	-1060.2822265625	996.977478027344	522.5266723632812	-1111.856689453125	994.966735839844	434.5023193359375	-1109.058471679688	984.3303222656252	492.0054016113281	-1001.351623535157	790.1436157226565	488.7104187011719	-1052.469360351563	786.824890136719	547.6726684570312	-981.4737548828128	696.3465576171876	504.3826904296875	-1068.158569335938	718.3017578125001	552.0675659179688	
22	0.21	-918.3050537109377	829.1931762695315	152.8292388916015	-1128.887451171875	865.1233520507815	224.1510772705077	-1127.584594726563	871.4473876953127	333.1099548339843	-900.2318115234377	852.2905883789065	393.8666381835938	-1002.461059570313	752.5852661132814	83.71182250976551	-1034.059326171875	413.0860595703126	109.9503173828124	-981.6709594726565	380.3248291015626	241.2565612792968	-1080.55859375	383.1016540527344	106.7889709472655	-1012.957763671875	338.1205444335938	141.9374999999999	-1313.727172851563	223.898422241211	185.6660156249999	-1272.181640625	196.4545593261719	257.9620056152343	-1348.396484375	233.6195068359376	238.5115203857421	-1303.719604492188	69.96269989013673	260.487579345703	-1293.930541992188	62.1199073791504	206.6366729736327	-1330.32861328125	92.9938430786133	157.5316314697264	-952.9320068359377	764.5805664062501	458.4940795898438	-903.0769042968752	421.066131591797	387.8679504394531	-886.269470214844	411.4123535156251	249.2274627685546	-897.4863281250002	367.2859191894532	387.3101501464844	-850.3547363281252	370.9440002441407	322.5051879882812	-936.1951904296877	60.38539123535158	344.0621948242187	-910.7143554687502	83.85565185546876	256.4857177734374	-973.696716308594	23.68885231018067	299.4249267578124	-798.858337402344	21.520902633667	249.4354705810547	-778.612243652344	36.65158843994141	304.5192871093749	-830.2742919921877	27.43446922302247	359.9301147460937	-1086.392822265625	1314.906005859375	274.6029357910156	-1142.135009765625	1118.165405273438	266.4410400390624	-888.9375000000002	1040.885009765625	270.4023132324218	-958.5913085937502	1248.491088867188	273.3714904785156	-1145.842041015625	1146.303588867188	191.9939117431639	-1112.410888671875	1268.005126953125	196.1109924316405	-1079.324462890625	1281.653442382813	136.0282897949218	-1018.025390625	1276.357299804688	96.5031738281249	-1037.8173828125	1004.95703125	36.78614807128894	-1067.923583984375	986.1453857421877	120.2038497924804	-1074.212646484375	979.3596191406252	71.17443084716786	-940.1065063476565	807.7122802734377	71.92816162109365	-993.0244750976565	797.488464355469	15.92149639129627	-897.839294433594	727.4071044921876	59.80316543579092	-978.5042114257815	718.8458862304689	9.824566841125371	-1145.58349609375	1142.379760742188	363.3442993164062	-1110.853149414063	1265.826049804688	355.4193725585937	-1085.404418945313	1273.263793945313	413.7316589355469	-1008.852294921875	1270.779541015625	448.4674682617188	-1044.85693359375	998.0164184570315	522.7908935546875	-1096.9287109375	995.6580810546877	435.1679382324219	-1093.738403320313	985.2713012695315	492.6276245117188	-985.5335693359378	791.329040527344	488.7601318359375	-1035.850952148438	787.9857177734377	548.1887817382812	-965.0251464843753	697.6572875976564	504.2138366699219	-1051.203857421875	719.3999633789064	552.7896118164062	
23	0.22	-905.4664306640627	830.7612304687502	151.8794403076171	-1116.197631835938	866.5857543945315	224.7924041748046	-1114.557006835938	873.7603759765627	333.4552612304687	-887.4818115234377	853.0310058593752	394.7231140136719	-988.4942626953127	754.2318725585939	84.15765380859364	-1009.492248535156	414.1429748535157	107.3481140136718	-957.0781250000002	382.1822814941407	239.6960296630859	-1055.8759765625	384.7172851562501	104.7430114746093	-987.937927246094	339.6112365722657	139.6928558349609	-1289.576293945313	227.1831207275391	185.0920257568358	-1247.193237304688	198.8960418701172	256.7554626464843	-1324.669555664063	235.0367584228516	238.2893066406249	-1274.623413085938	71.08962249755861	254.352798461914	-1265.691772460938	65.21887207031251	200.4770202636718	-1302.86669921875	97.74921417236331	153.0805053710936	-941.250183105469	765.2993774414064	458.5926818847656	-897.713806152344	420.6051330566407	387.8851623535156	-881.2572021484377	410.4725341796876	249.0678253173828	-892.8658447265627	366.8217163085938	387.3399047851562	-845.4666748046877	369.6863403320313	322.4126281738281	-935.8725585937502	60.52527618408205	343.9988708496093	-910.5258789062502	83.71405029296876	256.1579589843749	-973.5875244140627	23.78212547302246	299.3518066406249	-798.7771606445315	21.94095611572266	249.4366760253906	-778.518493652344	37.1272315979004	304.6466369628906	-830.2821044921877	27.72539901733399	359.9698486328124	-1073.23193359375	1316.515991210938	274.7627563476562	-1129.012451171875	1119.736083984375	266.6743469238281	-876.0730590820315	1042.11083984375	269.6546936035156	-945.6008911132815	1249.884033203125	273.0702514648437	-1133.0322265625	1148.026489257813	192.3173675537109	-1099.46923828125	1269.811279296875	196.1990509033202	-1066.46435546875	1283.427978515625	136.0221405029296	-1005.196166992188	1278.057739257813	96.36830139160146	-1026.5048828125	1006.891784667969	36.27020263671863	-1057.583862304688	988.4350585937502	119.5818786621093	-1063.2890625	981.7324829101565	70.50064086914051	-931.3491210937502	808.3806762695315	71.53720092773428	-984.239685058594	798.9937744140627	14.93724727630604	-891.2308349609377	726.8864746093751	60.25273513793936	-971.1165771484377	720.0858154296876	9.177224159240605	-1132.283081054688	1143.705078125	363.7859191894531	-1097.445190429688	1267.155395507813	355.6970520019531	-1071.720092773438	1274.299438476563	414.0172119140625	-994.987243652344	1271.697998046875	448.3185424804688	-1029.549072265625	998.953796386719	522.9953002929688	-1081.97705078125	996.1633300781252	435.7292175292969	-1078.492553710938	986.0461425781252	493.1532897949219	-969.5852661132816	792.4822998046877	488.7983093261719	-1019.176391601563	789.0340576171877	548.6015625	-948.2229614257816	699.0482177734376	504.1606750488281	-1034.026123046875	720.3583984375001	553.4078979492188	
24	0.23	-893.040710449219	832.5628662109377	150.2875518798827	-1103.757568359375	868.185974121094	225.8603210449218	-1101.671630859375	875.9766235351565	333.9279479980468	-874.9577636718752	853.4814453125002	395.5367126464844	-975.1943359375002	756.1337890625001	84.68292999267568	-984.9292602539065	415.5696716308595	105.2047271728515	-933.0394287109377	384.9580688476564	238.8243103027343	-1031.082275390625	386.4609680175782	103.2399063110351	-962.657165527344	341.5876159667969	138.0240173339843	-1264.539184570313	229.0875244140626	184.3618927001952	-1221.267333984375	200.3940124511719	255.5615997314452	-1300.2998046875	234.7877807617188	237.8446502685546	-1243.247680664063	71.45704650878908	248.4091033935546	-1235.014892578125	67.85766601562501	194.5235748291015	-1273.222778320313	101.1794052124024	148.7407989501952	-929.9978637695315	765.5395507812501	458.5923767089844	-892.7898559570315	420.0826721191407	387.828857421875	-876.4981079101565	409.4748535156251	248.9227142333984	-888.6602172851565	366.3104248046876	387.2939147949219	-840.974548339844	368.4106445312501	322.3010864257812	-935.5871582031252	60.64471817016603	343.8986816406249	-910.3203125000002	83.51564788818361	255.8018188476562	-973.5388793945315	23.89585494995118	299.2578735351562	-798.6497192382815	22.22935867309571	249.4294128417968	-778.464782714844	37.45778274536134	304.7333068847656	-830.3125610351565	27.89241409301759	359.9333496093749	-1060.15380859375	1318.062255859375	274.8495788574218	-1115.98046875	1121.23876953125	266.8928833007812	-863.3816528320315	1043.237915039063	268.8374633789062	-932.7014770507815	1251.195190429688	272.7131958007812	-1120.310913085938	1149.642944335938	192.6396484374999	-1086.624145507813	1271.510375976563	196.2274169921874	-1053.72314453125	1285.062866210938	135.9628295898436	-992.546569824219	1279.610107421875	96.15453338623037	-1015.339172363281	1008.71044921875	35.63846588134754	-1047.31494140625	990.5756835937502	118.8437728881835	-1052.480346679688	983.9771728515627	69.69054412841786	-922.6284790039065	809.0294189453127	71.0252685546874	-975.4705200195315	800.4638671875002	13.77571392059315	-884.6524658203127	726.4147338867189	60.51910400390616	-963.6721191406252	721.3345336914064	8.293043136596564	-1119.101806640625	1144.950561523438	364.2064208984374	-1084.14306640625	1268.41162109375	355.9022827148437	-1058.195434570313	1275.234497070313	414.2302856445312	-981.2946777343752	1272.530151367188	448.1307983398438	-1014.346069335938	999.7886352539065	523.1404418945312	-1066.990478515625	996.4971313476565	436.1783447265625	-1063.31591796875	986.6567993164065	493.5821838378906	-953.5043945312503	793.6052246093752	488.8179931640625	-1002.466369628907	789.9688720703127	548.9039916992188	-931.0969848632816	700.5100708007814	504.2174987792969	-1016.657531738282	721.1774902343751	553.9105834960938	
